<?xml version="1.0" encoding="utf-8"?>
<!-- Generator: Adobe Illustrator 24.3.0, SVG Export Plug-In . SVG Version: 6.00 Build 0)  -->
<svg version="1.1" id="Capa_1" xmlns="http://www.w3.org/2000/svg" xmlns:xlink="http://www.w3.org/1999/xlink" x="0px" y="0px"
	 viewBox="0 0 942 342" style="enable-background:new 0 0 942 342;" xml:space="preserve">
<style type="text/css">
	.st0{fill:url(#SVGID_1_);}
</style>
<linearGradient id="SVGID_1_" gradientUnits="userSpaceOnUse" x1="24.2542" y1="154.9158" x2="921.1044" y2="154.9158">
	<stop  offset="0.0102" style="stop-color:#F4037B"/>
	<stop  offset="0.9643" style="stop-color:#A3044C"/>
</linearGradient>
<path class="st0" d="M489.01,232.46h2.94l7.26,23.19l13.59-23.19h3.24l-17.15,29.26h-0.68L489.01,232.46z M518.39,240.08h2.63
	l-2.83,21.64h-2.73L518.39,240.08z M523.16,229.94h4.28l-6.74,6.13h-2.74L523.16,229.94z M537.15,242.51l-1.51,2.25
	c-1.22-1.74-2.67-2.61-4.34-2.61c-0.96,0-1.77,0.31-2.45,0.94c-0.68,0.62-1.01,1.31-1.01,2.07c0,0.58,0.2,1.14,0.62,1.67
	c0.4,0.53,1.3,1.25,2.72,2.17c2.07,1.34,3.43,2.5,4.1,3.5c0.65,1.01,0.97,2.17,0.97,3.48c0,1.82-0.63,3.32-1.9,4.52
	c-1.27,1.19-2.92,1.79-4.95,1.79c-2.68,0-4.94-1.19-6.76-3.56l1.69-1.97c1.61,1.95,3.35,2.92,5.24,2.92c1.07,0,2.01-0.38,2.81-1.13
	c0.8-0.76,1.19-1.63,1.19-2.63c0-0.81-0.3-1.58-0.89-2.33c-0.39-0.48-1.42-1.29-3.1-2.43c-1.82-1.25-3.01-2.28-3.58-3.1
	c-0.57-0.81-0.86-1.72-0.86-2.75c0-1.6,0.6-2.97,1.81-4.1c1.21-1.13,2.73-1.69,4.58-1.69c1.09,0,2.07,0.22,2.95,0.66
	C535.36,240.62,536.25,241.39,537.15,242.51z M546.32,231.99h2.72l-1.08,8.1h4.36l-0.32,2.43h-4.36l-2.56,19.22h-2.78l2.6-19.22
	h-3.71l0.34-2.43h3.7L546.32,231.99z M576.15,251.46h-19.29c-0.04,2.57,0.63,4.59,2.01,6.07c1.38,1.47,3.22,2.21,5.51,2.21
	c1.52,0,2.94-0.31,4.24-0.94c1.3-0.62,2.37-1.5,3.22-2.62l2.07,1.69c-1.05,1.34-2.42,2.41-4.11,3.21c-1.69,0.8-3.52,1.2-5.48,1.2
	c-3.4,0-5.95-1.05-7.65-3.15c-1.7-2.1-2.55-4.46-2.55-7.09c0-2.15,0.57-4.22,1.72-6.21c1.15-1.99,2.68-3.54,4.6-4.65
	c1.92-1.11,4.01-1.66,6.25-1.66c2.77,0,5.06,0.94,6.88,2.81c1.82,1.88,2.73,4.27,2.73,7.17
	C576.29,250.04,576.25,250.69,576.15,251.46z M573.61,249.03c-0.08-2.04-0.78-3.69-2.09-4.95c-1.31-1.26-2.97-1.89-4.95-1.89
	c-2.16,0-4.07,0.61-5.72,1.82c-1.65,1.22-2.82,2.89-3.51,5.02H573.61z M586.6,231.99h2.72l-1.08,8.1h4.36l-0.32,2.43h-4.36
	l-2.56,19.22h-2.78l2.6-19.22h-3.71l0.34-2.43h3.7L586.6,231.99z M616.43,251.46h-19.29c-0.04,2.57,0.63,4.59,2.01,6.07
	c1.38,1.47,3.21,2.21,5.51,2.21c1.52,0,2.94-0.31,4.24-0.94c1.3-0.62,2.37-1.5,3.22-2.62l2.07,1.69c-1.05,1.34-2.42,2.41-4.11,3.21
	c-1.69,0.8-3.52,1.2-5.48,1.2c-3.4,0-5.94-1.05-7.65-3.15c-1.71-2.1-2.56-4.46-2.56-7.09c0-2.15,0.57-4.22,1.72-6.21
	c1.15-1.99,2.68-3.54,4.6-4.65c1.92-1.11,4.01-1.66,6.24-1.66c2.77,0,5.07,0.94,6.88,2.81c1.82,1.88,2.72,4.27,2.72,7.17
	C616.57,250.04,616.52,250.69,616.43,251.46z M613.89,249.03c-0.08-2.04-0.78-3.69-2.09-4.95c-1.31-1.26-2.96-1.89-4.95-1.89
	c-2.16,0-4.07,0.61-5.72,1.82c-1.65,1.22-2.82,2.89-3.51,5.02H613.89z M654.82,244.76l-2.29,1.33c-1.6-2.6-4.05-3.9-7.35-3.9
	c-1.91,0-3.65,0.42-5.23,1.27c-1.58,0.85-2.81,2.03-3.69,3.54c-0.89,1.51-1.33,3.13-1.33,4.85c0,1.52,0.33,2.89,0.99,4.1
	c0.66,1.21,1.59,2.14,2.79,2.78s2.61,0.97,4.24,0.97c1.67,0,3.26-0.33,4.78-0.99c1.52-0.66,2.7-1.52,3.55-2.57l2.29,1.61
	c-1.43,1.57-2.99,2.71-4.66,3.43c-1.68,0.72-3.62,1.08-5.84,1.08c-3.42,0-6.09-0.93-8.01-2.79s-2.87-4.35-2.87-7.45
	c0-3.45,1.26-6.4,3.77-8.84c2.51-2.45,5.59-3.67,9.24-3.67c2.19,0,4.12,0.46,5.79,1.38C652.65,241.83,653.93,243.11,654.82,244.76z
	 M670.87,239.53c1.84,0,3.53,0.44,5.07,1.32c1.54,0.88,2.74,2.11,3.6,3.68c0.86,1.57,1.29,3.35,1.29,5.34
	c0,2.27-0.55,4.37-1.65,6.31c-1.1,1.94-2.58,3.44-4.44,4.5c-1.86,1.06-3.96,1.59-6.31,1.59c-2.9,0-5.29-0.95-7.17-2.85
	c-1.88-1.9-2.81-4.33-2.81-7.27c0-2.31,0.55-4.43,1.65-6.38s2.61-3.48,4.53-4.59C666.55,240.08,668.63,239.53,670.87,239.53z
	 M670.8,242.17c-1.73,0-3.35,0.43-4.87,1.29c-1.52,0.86-2.69,2.04-3.51,3.55c-0.82,1.5-1.22,3.17-1.22,4.98
	c0,2.28,0.7,4.13,2.11,5.56c1.41,1.43,3.23,2.14,5.46,2.14c1.74,0,3.32-0.42,4.73-1.24c1.42-0.83,2.54-2.03,3.38-3.59
	c0.84-1.56,1.25-3.24,1.25-5.03c0-1.5-0.31-2.83-0.94-3.99c-0.62-1.16-1.51-2.06-2.65-2.71
	C673.41,242.49,672.16,242.17,670.8,242.17z M687.76,240.08h2.67l-0.45,3.36c2.2-2.62,4.76-3.92,7.68-3.92
	c2.24,0,4.05,0.68,5.42,2.06c1.37,1.37,2.06,3.22,2.06,5.54c0,0.93-0.15,2.49-0.44,4.68l-1.34,9.93h-2.73l1.34-9.93
	c0.29-2.12,0.43-3.69,0.43-4.7c0-1.52-0.46-2.74-1.38-3.67c-0.92-0.93-2.12-1.4-3.61-1.4c-1.47,0-2.83,0.38-4.09,1.13
	c-1.26,0.76-2.23,1.78-2.92,3.07c-0.69,1.29-1.23,3.34-1.59,6.13l-1.24,9.35h-2.73L687.76,240.08z M725.17,240.08h2.78l-1.31,9.05
	c-0.39,2.66-0.58,4.35-0.58,5.07c0,1.62,0.51,2.94,1.52,3.96c1.01,1.02,2.35,1.53,4.02,1.53c1.39,0,2.59-0.4,3.61-1.2
	c1.02-0.79,1.75-1.84,2.19-3.12c0.22-0.65,0.48-2.14,0.78-4.48l1.46-10.82h2.73l-1.05,8.19c-0.5,3.92-1.03,6.7-1.59,8.35
	c-0.56,1.65-1.56,3-3,4.06c-1.44,1.06-3.19,1.59-5.26,1.59c-2.36,0-4.28-0.77-5.78-2.3s-2.25-3.44-2.25-5.74
	c0-0.91,0.08-1.98,0.25-3.2l0.2-1.91l0.11-0.81L725.17,240.08z M748.65,240.08h2.67l-0.45,3.36c2.2-2.62,4.76-3.92,7.68-3.92
	c2.24,0,4.05,0.68,5.42,2.06c1.37,1.37,2.06,3.22,2.06,5.54c0,0.93-0.15,2.49-0.44,4.68l-1.34,9.93h-2.73l1.34-9.93
	c0.29-2.12,0.43-3.69,0.43-4.7c0-1.52-0.46-2.74-1.38-3.67c-0.92-0.93-2.12-1.4-3.61-1.4c-1.47,0-2.83,0.38-4.09,1.13
	c-1.26,0.76-2.23,1.78-2.92,3.07c-0.69,1.29-1.23,3.34-1.59,6.13l-1.24,9.35h-2.73L748.65,240.08z M804.85,244.76l-2.29,1.33
	c-1.6-2.6-4.05-3.9-7.35-3.9c-1.91,0-3.65,0.42-5.23,1.27c-1.58,0.85-2.81,2.03-3.69,3.54c-0.89,1.51-1.33,3.13-1.33,4.85
	c0,1.52,0.33,2.89,0.99,4.1c0.66,1.21,1.59,2.14,2.79,2.78s2.61,0.97,4.24,0.97c1.67,0,3.26-0.33,4.78-0.99
	c1.52-0.66,2.7-1.52,3.55-2.57l2.29,1.61c-1.43,1.57-2.99,2.71-4.66,3.43c-1.68,0.72-3.62,1.08-5.84,1.08
	c-3.42,0-6.09-0.93-8.01-2.79s-2.87-4.35-2.87-7.45c0-3.45,1.26-6.4,3.77-8.84c2.51-2.45,5.59-3.67,9.24-3.67
	c2.19,0,4.12,0.46,5.79,1.38C802.68,241.83,803.96,243.11,804.85,244.76z M811.71,231.73h2.71l-4.04,29.99h-2.73L811.71,231.73z
	 M818.74,240.08h2.63l-2.83,21.64h-2.73L818.74,240.08z M820.93,231.17c0.61,0,1.13,0.22,1.57,0.66c0.44,0.44,0.66,0.96,0.66,1.57
	c0,0.62-0.22,1.15-0.66,1.58c-0.44,0.43-0.96,0.65-1.57,0.65c-0.62,0-1.15-0.22-1.58-0.65c-0.43-0.43-0.65-0.96-0.65-1.58
	c0-0.61,0.22-1.13,0.65-1.57C819.77,231.39,820.3,231.17,820.93,231.17z M847.52,244.76l-2.29,1.33c-1.6-2.6-4.05-3.9-7.35-3.9
	c-1.91,0-3.65,0.42-5.23,1.27c-1.58,0.85-2.81,2.03-3.69,3.54c-0.89,1.51-1.33,3.13-1.33,4.85c0,1.52,0.33,2.89,0.99,4.1
	c0.66,1.21,1.59,2.14,2.79,2.78s2.61,0.97,4.24,0.97c1.67,0,3.26-0.33,4.78-0.99c1.52-0.66,2.7-1.52,3.55-2.57l2.29,1.61
	c-1.43,1.57-2.99,2.71-4.66,3.43c-1.68,0.72-3.62,1.08-5.84,1.08c-3.42,0-6.09-0.93-8.01-2.79s-2.87-4.35-2.87-7.45
	c0-3.45,1.26-6.4,3.77-8.84c2.51-2.45,5.59-3.67,9.24-3.67c2.19,0,4.12,0.46,5.79,1.38C845.35,241.83,846.63,243.11,847.52,244.76z
	 M854.88,231.73h2.7l-2.18,16.43l10.49-8.07h4.33l-12.56,9.67l11.07,11.97h-3.72l-10.02-10.81l-1.39,10.81h-2.78L854.88,231.73z
	 M24.25,90.86h16.1v127.35h39.73v13.59H24.25V90.86z M152.23,204.2c0,11.29,0.63,20.07,0.84,27.6h-14.01l-1.05-10.67h-0.42
	c-3.14,5.02-10.87,12.34-21.75,12.34c-17.77,0-24.68-13.8-24.68-38.89v-63.99h16.1v61.69c0,15.89,2.51,27.6,13.59,27.6
	c9.41,0,13.59-8.78,14.43-13.38c0.63-2.72,0.84-5.86,0.84-9.2v-66.71h16.1V204.2z M224.17,229.3c-3.55,2.09-9.62,3.76-16.73,3.76
	c-22.17,0-37.01-17.77-37.01-51.23c0-29.07,14.64-52.7,39.94-52.7c5.44,0,11.29,1.46,14.22,3.14l-3.14,13.17
	c-2.09-1.04-6.27-2.72-11.5-2.72c-16.1,0-23.42,19.24-23.42,39.1c0,23.63,8.99,37.85,23.84,37.85c4.39,0,7.95-1.05,11.71-2.72
	L224.17,229.3z M250.52,130.59l13.38,58.13c1.88,7.95,2.93,14.64,4.18,20.91h0.42c1.05-5.65,2.72-13.38,4.39-20.7l11.92-58.34h15.89
	l-16.52,65.03c-6.27,25.51-13.17,49.98-25.09,65.24c-7.11,8.99-14.64,13.8-18.19,15.47l-5.86-13.8c4.6-2.51,9.62-6.9,14.22-12.76
	c4.18-5.23,7.53-12.13,9.2-16.94c0.84-2.51,1.05-3.56,1.05-5.02c0-1.26,0-2.51-0.42-3.76l-25.51-93.47H250.52z M485.91,158.12
	c0-10.27-0.57-19.2-0.76-27.95h21.67l1.14,10.84h0.38c4.75-7.03,12.55-12.36,22.24-12.36c10.46,0,17.11,4.75,20.34,12.55h0.38
	c2.28-3.61,5.7-7.03,9.32-9.32c3.8-2.09,8.37-3.23,13.12-3.23c16.54,0,23.95,13.12,23.95,35.55v58.94h-24.72v-54.75
	c0-10.65-1.14-19.2-8.75-19.2c-4.37,0-7.6,3.04-9.32,8.55c-0.38,1.33-0.76,3.99-0.76,6.46v58.94h-24.72v-58.36
	c0-6.65-0.76-15.59-8.56-15.59c-3.8,0-7.6,2.85-9.32,8.36c-0.57,1.71-0.95,4.37-0.95,7.03v58.55h-24.71V158.12z M674.5,176.37
	c0,38.78-21.48,48.29-35.55,48.29c-22.24,0-35.55-17.49-35.55-47.72c0-33.46,17.49-48.29,35.93-48.29
	C661.19,128.66,674.5,147.1,674.5,176.37z M628.11,176.37c0,15.97,2.47,29.28,11.41,29.28c7.98,0,10.08-15.59,10.08-29.28
	c0-12.74-2.09-28.9-10.46-28.9C630.01,147.48,628.11,163.64,628.11,176.37z M747.5,91.58v103.99c0,8.93,0.38,19.01,0.76,27.56
	h-21.48l-1.33-10.46h-0.38c-3.42,6.47-10.84,11.98-19.39,11.98c-19.77,0-28.9-21.86-28.9-47.91c0-32.32,14.07-48.1,29.85-48.1
	c8.17,0,13.31,3.99,15.59,9.32h0.38V91.58H747.5z M722.6,165.92c0-1.71,0-3.61-0.19-5.51c-0.95-5.7-3.99-10.84-8.94-10.84
	c-8.75,0-11.98,12.74-11.98,27.76c0,17.68,4.75,27,11.79,27c3.04,0,6.65-1.71,8.56-8.18c0.57-1.33,0.76-3.42,0.76-5.7V165.92z
	 M798.07,223.14l-1.33-9.12h-0.38c-5.13,7.22-12.36,10.64-20.53,10.64c-14.07,0-24.52-11.79-24.52-28.33
	c0-24.33,21.48-34.41,42.59-34.6v-2.09c0-7.22-4.37-12.55-13.12-12.55c-7.41,0-13.5,1.9-19.01,5.32l-4.56-16.73
	c5.13-3.04,15.97-7.03,28.9-7.03c28.33,0,32.89,19.77,32.89,38.59v34.6c0,7.41,0.38,15.02,1.52,21.29H798.07z M794.64,177.9
	c-8.37,0.19-19.77,2.85-19.77,15.78c0,9.32,5.13,12.74,8.93,12.74c3.99,0,8.56-2.47,10.27-7.99c0.38-1.33,0.57-2.85,0.57-4.37V177.9
	z M827.34,200.71c3.61,2.28,10.45,4.94,16.73,4.94c6.46,0,10.08-2.85,10.08-8.36c0-4.75-2.66-7.8-10.84-12.55
	c-15.21-8.55-18.82-18.25-18.82-26.81c0-16.73,11.98-29.28,30.61-29.28c7.8,0,13.88,1.9,18.82,4.18l-4.37,18.25
	c-3.61-2.09-7.98-3.8-12.93-3.8c-6.28,0-9.32,3.8-9.32,7.99s2.09,6.46,10.84,11.6c13.69,7.8,18.82,17.49,18.82,28.14
	c0,19.01-13.69,29.28-32.89,29.28c-7.8,0-16.92-2.09-21.29-5.32L827.34,200.71z M921.1,175.23c0,7.79-6.11,13.91-13.91,13.91
	c-7.71,0-13.91-6.11-13.91-13.91c0-7.71,6.2-13.82,13.91-13.82C914.99,161.41,921.1,167.52,921.1,175.23z M896.66,175.23
	c0,6.2,4.52,11.07,10.54,11.07c6.02,0,10.45-4.87,10.45-11.07c0-6.02-4.43-10.98-10.45-10.98
	C901.17,164.24,896.66,169.2,896.66,175.23z M904.98,182.4h-2.92v-13.73c1.15-0.27,2.75-0.53,4.96-0.53c2.48,0,3.63,0.44,4.61,1.15
	c0.8,0.53,1.42,1.59,1.42,2.92c0,1.59-1.33,2.75-2.92,3.28v0.18c1.42,0.44,2.04,1.51,2.48,3.37c0.44,2.04,0.71,2.92,0.97,3.37h-3.1
	c-0.44-0.53-0.71-1.68-1.06-3.37c-0.27-1.42-1.15-2.13-2.92-2.13h-1.51V182.4z M905.07,174.61h1.51c1.77,0,3.19-0.53,3.19-1.95
	c0-1.33-0.89-2.13-2.92-2.13c-0.89,0-1.42,0.09-1.77,0.18V174.61z M649.25,166.44 M649.25,166.44 M441.81,288.48
	c10.99-26.34,32.18-26.47,32.18-26.47c-10.93-39.51-4.86-187-4.86-187C468.72,78.28,441.81,288.48,441.81,288.48z M387.93,292.18
	c0,0,12.44-16.02,33.15-13.71c0,0,11.07-131.99,26.78-183.6C436.73,115.21,387.93,292.18,387.93,292.18z M425.61,283.66
	c2.51,0.81,5,1.67,7.42,2.66c2.38,0.99,4.84,2.11,6.63,3.59l1.69,1.4l0.4-2.24l2.34-13.18c0.75-4.4,1.66-8.78,2.04-13.22l3.25-26.54
	l6.55-53.08l13.1-106.15l0.25-2.05l-1.99-0.54l-48.33-13.06l-6.03-1.68c-2.01-0.56-4.07-0.95-6.11-1.39l-12.26-2.6l-12.26-2.6
	l-12.29-2.5l11.87,4.03l11.9,3.93l11.9,3.93c1.99,0.65,3.96,1.35,5.98,1.88l6.05,1.58l48.33,13.06l-1.74-2.58l-13.1,106.15
	l-6.55,53.08l-3.3,26.53c-0.71,4.4-0.89,8.87-1.23,13.32l-0.94,13.36l2.08-0.84c-1.23-0.89-2.48-1.49-3.75-2.03
	c-1.26-0.53-2.54-0.99-3.82-1.4c-2.56-0.83-5.14-1.51-7.73-2.13c-5.19-1.2-10.41-2.17-15.65-2.98
	C415.48,280.62,420.59,282.03,425.61,283.66z M373.88,57.4c0,0,0.54-2.21,1.95-5.94c1.43-3.71,3.69-8.99,7.59-14.6
	c1.96-2.79,4.36-5.64,7.32-8.17c2.94-2.55,6.54-4.72,10.61-5.94c4.06-1.25,8.54-1.55,12.95-0.81c2.2,0.36,4.38,0.93,6.53,1.64
	c1.05,0.4,2.14,0.78,3.16,1.2c0.99,0.53,1.95,1.13,2.89,1.77c7.5,5.07,13.24,12.86,15.07,21.21c0.96,4.14,1.07,8.31,0.6,12.18
	c-0.47,3.88-1.48,7.45-2.59,10.67c-1.22,3.19-2.51,6.04-3.83,8.48c-1.29,2.46-2.57,4.51-3.63,6.2c-1.05,1.7-2,2.94-2.59,3.83
	c-0.61,0.88-0.93,1.35-0.93,1.35l0.19,0.14c0,0,0.36-0.45,1.02-1.29c0.64-0.86,1.71-2.03,2.84-3.69c2.31-3.27,5.59-8.06,8.24-14.55
	c1.24-3.27,2.41-6.91,3.02-10.94c0.61-4.02,0.68-8.44-0.34-12.86c-0.94-4.42-2.89-8.79-5.61-12.66c-2.72-3.89-6.2-7.28-10.13-10.04
	c-1.01-0.69-1.99-1.29-3.16-1.9c-0.14-0.07,0.01-0.01-0.34-0.16l-0.21-0.08l-0.42-0.15l-0.84-0.3l-1.67-0.6
	c-2.26-0.73-4.58-1.3-6.93-1.66c-4.69-0.74-9.54-0.37-13.89,1.03c-4.39,1.33-8.15,3.8-11.15,6.57c-3.03,2.76-5.41,5.78-7.33,8.71
	c-3.85,5.87-5.75,11.39-7.03,15.18c-1.21,3.84-1.58,6.11-1.58,6.11L373.88,57.4z M394.33,55.78c0,0-0.06-1.81,0.22-4.98
	c0.3-3.15,0.91-7.69,2.7-12.84c0.91-2.56,2.14-5.26,3.87-7.84c1.71-2.59,4-5.02,6.87-6.83c2.84-1.83,6.22-3.02,9.75-3.39
	c1.77-0.19,3.56-0.23,5.36-0.14l2.67,0.25c0.88,0.19,1.73,0.46,2.59,0.74c3.41,1.17,6.66,2.87,9.42,5.11
	c0.72,0.52,1.31,1.19,1.97,1.77l0.96,0.91l0.83,1.02c0.53,0.69,1.13,1.32,1.61,2.04c0.44,0.74,0.87,1.47,1.3,2.2
	c0.48,0.71,0.8,1.48,1.09,2.26c0.31,0.77,0.61,1.54,0.91,2.3c0.49,1.55,0.74,3.14,1.1,4.65c0.32,3.08,0.57,6.03,0.22,8.74
	c-0.15,1.35-0.1,2.67-0.39,3.88c-0.25,1.22-0.48,2.37-0.7,3.45c-0.24,1.08-0.38,2.11-0.66,3.02c-0.29,0.91-0.56,1.75-0.8,2.51
	c-0.96,3.03-1.51,4.76-1.51,4.76l0.22,0.08c0,0,0.72-1.67,1.9-4.66c0.29-0.75,0.61-1.58,0.97-2.48c0.34-0.91,0.55-1.94,0.86-3.02
	c0.29-1.09,0.6-2.25,0.93-3.48c0.38-1.22,0.36-2.58,0.58-3.96c0.46-2.77,0.33-5.85,0.12-9.11c-0.32-1.61-0.52-3.3-0.98-4.98
	c-0.29-0.82-0.58-1.66-0.91-2.49c-0.3-0.85-0.64-1.68-1.14-2.45c-0.46-0.79-0.92-1.59-1.38-2.4c-0.5-0.78-1.13-1.48-1.7-2.23
	l-0.88-1.11l-1.02-0.99c-0.7-0.64-1.34-1.37-2.1-1.94c-2.95-2.46-6.39-4.33-10.05-5.64c-0.89-0.3-1.91-0.59-2.87-0.79l-0.08-0.02
	l-0.21-0.04l-0.04,0l-0.18-0.01l-0.36-0.03l-0.72-0.05l-1.43-0.1c-1.92-0.07-3.84-0.01-5.75,0.23c-3.81,0.46-7.52,1.81-10.61,3.86
	c-3.14,2-5.51,4.77-7.22,7.58c-1.73,2.81-2.9,5.68-3.74,8.36c-1.67,5.38-1.87,10.05-2.01,13.25c-0.06,3.22,0.18,5.04,0.18,5.04
	L394.33,55.78z M387.85,292.38l4.95-14.5l55.07-183.01L353.3,40.96l-66.54,206.33c0,0,33.27,2.38,62.97,24.95
	c0,0-16.04-20.79-58.42-28.42l5.54-17.33c0,0,53.47-168.52,58.32-174.76l83.65,46.14l-51.27,173.57l-14.85-42.18l19.21,7.33
	l-36.24-49.71l-3.86,66.34l13.76-21.59L387.85,292.38z M394.88,79.23l-39-20.33L342.6,96.65C357.95,68.65,394.88,79.23,394.88,79.23
	z M358.04,184.31l19.6-10.69l-7.13-1.19L358.04,184.31z M358.93,185.93l21.81,4.8l-4.6-5.58L358.93,185.93z M355.13,183.63
	l3.74-16.44l-4.28,0.84L355.13,183.63z"/>
</svg>
